<svg id="Layer_1" data-name="Layer 1" xmlns="http://www.w3.org/2000/svg" viewBox="0 0 1920 200"><defs><style>.cls-1{fill:#caa45f;}.cls-2{fill:#bdbbba;}.cls-3{fill:#bb6d74;}.cls-4{fill:#9e80a9;}.cls-5{fill:#abba78;}.cls-6{fill:#7694a9;}</style></defs><title>Midterstykke</title><rect class="cls-1" x="1791.72" y="145.91" width="56.26" height="11.95"/><rect class="cls-2" x="1715.81" y="120.35" width="80.15" height="11.95"/><rect class="cls-3" x="1490.8" y="120.34" width="201.11" height="11.95"/><rect class="cls-4" x="1771.54" y="94.51" width="100.39" height="11.95"/><rect class="cls-5" x="1597.14" y="94.51" width="150.51" height="11.95"/><rect class="cls-1" x="1729.66" y="68.68" width="118.38" height="11.95"/><rect class="cls-2" x="1512.02" y="68.68" width="56.26" height="11.95"/><rect class="cls-1" x="1442.35" y="68.68" width="45.78" height="11.95"/><rect class="cls-6" x="1490.8" y="42.84" width="127.93" height="11.95"/><rect class="cls-4" x="1592.17" y="68.68" width="113.6" height="11.95"/><rect class="cls-3" x="1791.78" y="42.84" width="80.15" height="11.95"/><rect class="cls-1" x="1717.09" y="42.84" width="50.8" height="11.95"/><rect class="cls-2" x="1642.63" y="42.84" width="50.8" height="11.95"/><rect class="cls-1" x="1434.41" y="17.01" width="233.62" height="11.95"/><rect class="cls-4" x="1767.89" y="17.01" width="80.15" height="11.95"/><rect class="cls-5" x="1819.85" y="120.35" width="52.08" height="11.95"/><rect class="cls-2" x="1465.24" y="94.51" width="108.01" height="11.95"/><rect class="cls-4" x="1691.92" y="17.01" width="52.08" height="11.95"/><rect class="cls-3" x="1458.3" y="172.02" width="233.62" height="11.95"/><rect class="cls-4" x="1791.78" y="172.02" width="80.15" height="11.95"/><rect class="cls-4" x="1715.81" y="172.02" width="52.08" height="11.95"/><rect class="cls-2" x="1642.63" y="146.16" width="125.26" height="11.46"/><rect class="cls-5" x="1492.68" y="146.16" width="125.26" height="11.46"/><rect class="cls-4" x="49.8" y="16.99" width="100.39" height="11.95"/><rect class="cls-1" x="174.08" y="16.99" width="150.51" height="11.95"/><rect class="cls-1" x="73.69" y="42.83" width="118.38" height="11.95"/><rect class="cls-2" x="353.45" y="42.83" width="56.26" height="11.95"/><rect class="cls-1" x="433.6" y="42.83" width="45.78" height="11.95"/><rect class="cls-6" x="303" y="68.64" width="142.97" height="11.46"/><rect class="cls-4" x="215.96" y="42.83" width="113.6" height="11.95"/><rect class="cls-6" x="322.9" y="120.34" width="32.37" height="11.95"/><rect class="cls-3" x="49.8" y="68.67" width="80.15" height="11.95"/><rect class="cls-1" x="153.84" y="68.67" width="50.8" height="11.95"/><rect class="cls-2" x="228.31" y="68.67" width="50.8" height="11.95"/><rect class="cls-1" x="253.71" y="94.5" width="233.62" height="11.95"/><rect class="cls-4" x="73.69" y="94.5" width="80.15" height="11.95"/><rect class="cls-5" x="49.8" y="120.34" width="249.21" height="11.95"/><rect class="cls-3" x="73.69" y="146.17" width="80.15" height="11.95"/><rect class="cls-2" x="177.74" y="146.17" width="250.92" height="11.95"/><rect class="cls-4" x="211.54" y="171.92" width="234.42" height="12.03"/><rect class="cls-1" x="49.8" y="172.52" width="61.27" height="11.46"/><rect class="cls-2" x="348.49" y="17" width="108.01" height="11.95"/><rect class="cls-4" x="177.74" y="94.5" width="52.08" height="11.95"/><rect class="cls-4" x="379.43" y="120.34" width="77.06" height="11.95"/><rect class="cls-2" x="135.51" y="172.01" width="52.08" height="11.95"/></svg>