<svg xmlns="http://www.w3.org/2000/svg" width="269" height="111.102" viewBox="0 0 269 111.102">
  <g id="Group_56" data-name="Group 56" transform="translate(-827 -13)">
    <g id="HoC-logo" transform="translate(827 13)">
      <rect id="Rectangle_161" data-name="Rectangle 161" width="29.645" height="5.45" transform="translate(147.141 49.615)" fill="#6696ac"/>
      <rect id="Rectangle_162" data-name="Rectangle 162" width="40.661" height="5.45" transform="translate(117.504 39.692)" fill="#d8a55b"/>
      <rect id="Rectangle_163" data-name="Rectangle 163" width="14.047" height="5.45" transform="translate(124.021 29.769)" fill="#d36d75"/>
      <rect id="Rectangle_164" data-name="Rectangle 164" width="6.517" height="5.45" transform="translate(143.115 29.769)" fill="#a6bb75"/>
      <rect id="Rectangle_165" data-name="Rectangle 165" width="6.517" height="5.45" transform="translate(163.228 39.692)" fill="#c0bcbb"/>
      <rect id="Rectangle_166" data-name="Rectangle 166" width="21.577" height="5.45" transform="translate(174.789 39.692)" fill="#d36d75"/>
      <rect id="Rectangle_167" data-name="Rectangle 167" width="26.604" height="5.45" transform="translate(154.689 29.769)" fill="#aa81ac"/>
      <rect id="Rectangle_168" data-name="Rectangle 168" width="16.56" height="5.45" transform="translate(158.212 19.846)" fill="#d7734b"/>
      <rect id="Rectangle_169" data-name="Rectangle 169" width="13.044" height="5.45" transform="translate(148.153 9.91)" fill="#c0bcbb"/>
      <rect id="Rectangle_170" data-name="Rectangle 170" width="20.077" height="5.45" transform="translate(166.243 9.91)" fill="#a6bb75"/>
      <rect id="Rectangle_171" data-name="Rectangle 171" width="35.645" height="5.45" transform="translate(117.5 19.846)" fill="#6696ac"/>
      <rect id="Rectangle_172" data-name="Rectangle 172" width="36.648" height="5.45" transform="translate(138.114)" fill="#d7734b"/>
      <rect id="Rectangle_173" data-name="Rectangle 173" width="15.557" height="5.45" transform="translate(127.543 9.91)" fill="#a6bb75"/>
      <path id="Path_52" data-name="Path 52" d="M190.648,114.95H143.48V82.04l27-22.09h11.148V65.4h-9.152L149,84.6v24.9h41.644Z" transform="translate(-48.596 -59.95)" fill="#515f6d"/>
      <path id="Path_53" data-name="Path 53" d="M66.216,170.46V160.18H55.7v10.29H50V144.84h5.716V155h10.5V144.84h5.716v25.63Z" transform="translate(-50 -59.812)" fill="#515f6d"/>
      <path id="Path_54" data-name="Path 54" d="M88.973,170.9c-8.017,0-13.763-5.89-13.763-13.18v-.07a13.164,13.164,0,0,1,4.075-9.513,13.529,13.529,0,0,1,9.759-3.737c8.017,0,13.763,5.89,13.763,13.18v.07a13.164,13.164,0,0,1-4.075,9.513,13.529,13.529,0,0,1-9.759,3.737Zm7.865-13.25a7.733,7.733,0,0,0-2.207-5.666,7.947,7.947,0,0,0-5.658-2.384,7.815,7.815,0,0,0-5.635,2.352,7.6,7.6,0,0,0-2.159,5.648v.07a7.733,7.733,0,0,0,2.207,5.666,7.947,7.947,0,0,0,5.658,2.384,7.815,7.815,0,0,0,5.635-2.352,7.6,7.6,0,0,0,2.159-5.648Z" transform="translate(-49.66 -59.812)" fill="#515f6d"/>
      <path id="Path_55" data-name="Path 55" d="M116.83,170.87c-6.973,0-11.24-3.84-11.24-11.39V144.84h5.716v14.5c0,4.17,2.118,6.33,5.6,6.33s5.6-2.09,5.6-6.15V144.84h5.716V159.3C128.221,167.06,123.8,170.87,116.83,170.87Z" transform="translate(-49.174 -59.812)" fill="#515f6d"/>
      <path id="Path_56" data-name="Path 56" d="M141.467,170.83a16.659,16.659,0,0,1-11.017-4.1l3.375-4a11.994,11.994,0,0,0,7.753,3.11c2.341,0,3.75-.92,3.75-2.42v-.07c0-1.43-.892-2.16-5.23-3.26-5.23-1.32-8.6-2.75-8.6-7.83v-.07c0-4.65,3.78-7.72,9.121-7.72a15.16,15.16,0,0,1,9.648,3.26l-3.04,4.27a12.259,12.259,0,0,0-6.75-2.53c-2.189,0-3.334,1-3.334,2.23v.07c0,1.68,1.115,2.23,5.6,3.37,5.27,1.35,8.24,3.22,8.24,7.69v.07C151,168,147.071,170.83,141.467,170.83Z" transform="translate(-48.805 -59.812)" fill="#515f6d"/>
      <path id="Path_57" data-name="Path 57" d="M154.17,170.46V144.84h19.591v5H159.846v5.2h12.243v5H159.846v5.38h14.1v5Z" transform="translate(-48.453 -59.812)" fill="#515f6d"/>
      <path id="Path_58" data-name="Path 58" d="M178.44,161.41a9.584,9.584,0,0,1,9.405-9.34c4.611,0,7.571,3.07,7.571,7.29a9.6,9.6,0,0,1-9.405,9.31C181.4,168.67,178.44,165.6,178.44,161.41Zm13.317-2a3.829,3.829,0,0,0-1.079-3.046,3.941,3.941,0,0,0-3.046-1.174c-3.172,0-5.534,3.23-5.534,6.06a3.829,3.829,0,0,0,1.079,3.046,3.94,3.94,0,0,0,3.046,1.174c3.122.04,5.534-3.13,5.534-6.02Z" transform="translate(-48.095 -59.812)" fill="#515f6d"/>
      <path id="Path_59" data-name="Path 59" d="M199.8,155.53h-2.027l.851-3.13h2.027l.3-1.3c.912-3.38,3.04-4.94,6.142-4.94a8.472,8.472,0,0,1,3.182.54l-.821,3a5.976,5.976,0,0,0-2.26-.48,2.594,2.594,0,0,0-2.655,2.23l-.243.9h4.459l-.851,3.13H203.5l-3.446,12.83h-3.7Z" transform="translate(-47.831 -59.812)" fill="#515f6d"/>
      <path id="Path_60" data-name="Path 60" d="M226.177,170.9a13.2,13.2,0,0,1-9.5-3.8,12.84,12.84,0,0,1-3.822-9.381v-.07a12.911,12.911,0,0,1,3.9-9.485A13.271,13.271,0,0,1,226.4,144.4a13.5,13.5,0,0,1,10.236,4L233,152.54a9.648,9.648,0,0,0-6.638-2.89c-4.378,0-7.53,3.59-7.53,8v.07c0,4.39,3.04,8.05,7.53,8.05,2.97,0,4.784-1.17,6.831-3l3.638,3.62a13.361,13.361,0,0,1-10.652,4.51Z" transform="translate(-47.578 -59.812)" fill="#515f6d"/>
      <path id="Path_61" data-name="Path 61" d="M251.4,170.9c-8.017,0-13.763-5.89-13.763-13.18v-.07a13.164,13.164,0,0,1,4.079-9.517,13.529,13.529,0,0,1,9.765-3.733c8.017,0,13.763,5.89,13.763,13.18v.07a13.164,13.164,0,0,1-4.079,9.517A13.529,13.529,0,0,1,251.4,170.9Zm7.885-13.25a7.733,7.733,0,0,0-2.207-5.666,7.947,7.947,0,0,0-5.658-2.384,7.815,7.815,0,0,0-5.635,2.352,7.6,7.6,0,0,0-2.159,5.648v.07a7.733,7.733,0,0,0,2.207,5.666,7.947,7.947,0,0,0,5.658,2.384,7.815,7.815,0,0,0,5.635-2.352,7.6,7.6,0,0,0,2.159-5.648Z" transform="translate(-47.205 -59.812)" fill="#515f6d"/>
      <path id="Path_62" data-name="Path 62" d="M278.545,170.46H268.41V144.84h10.135c8.159,0,13.8,5.53,13.8,12.74v.07C292.318,164.86,286.714,170.46,278.545,170.46Zm7.824-12.81a7.306,7.306,0,0,0-2.175-5.574,7.515,7.515,0,0,0-5.649-2.146h-4.419v15.45h4.419a7.455,7.455,0,0,0,5.642-2.1,7.247,7.247,0,0,0,2.182-5.548Z" transform="translate(-46.72 -59.812)" fill="#515f6d"/>
      <path id="Path_63" data-name="Path 63" d="M295.58,170.46V144.84h19.591v5H301.256v5.2H313.5v5H301.256v5.38h14.1v5Z" transform="translate(-46.353 -59.812)" fill="#515f6d"/>
    </g>
    <g id="HoC-logo_light" transform="translate(827 13)">
      <path id="Path_22" data-name="Path 22" d="M190.648,114.95H143.48V82.04l27-22.09h11.148V65.4h-9.152L149,84.6v24.9h41.644Z" transform="translate(-48.596 -59.95)" fill="#fff"/>
      <path id="Path_23" data-name="Path 23" d="M66.216,170.46V160.18H55.7v10.29H50V144.84h5.716V155h10.5V144.84h5.716v25.63Z" transform="translate(-50 -59.812)" fill="#fff"/>
      <path id="Path_24" data-name="Path 24" d="M88.973,170.9c-8.017,0-13.763-5.89-13.763-13.18v-.07a13.164,13.164,0,0,1,4.075-9.513,13.529,13.529,0,0,1,9.759-3.737c8.017,0,13.763,5.89,13.763,13.18v.07a13.164,13.164,0,0,1-4.075,9.513,13.529,13.529,0,0,1-9.759,3.737Zm7.865-13.25a7.733,7.733,0,0,0-2.207-5.666,7.947,7.947,0,0,0-5.658-2.384,7.815,7.815,0,0,0-5.635,2.352,7.6,7.6,0,0,0-2.159,5.648v.07a7.733,7.733,0,0,0,2.207,5.666,7.947,7.947,0,0,0,5.658,2.384,7.815,7.815,0,0,0,5.635-2.352,7.6,7.6,0,0,0,2.159-5.648Z" transform="translate(-49.66 -59.812)" fill="#fff"/>
      <path id="Path_25" data-name="Path 25" d="M116.83,170.87c-6.973,0-11.24-3.84-11.24-11.39V144.84h5.716v14.5c0,4.17,2.118,6.33,5.6,6.33s5.6-2.09,5.6-6.15V144.84h5.716V159.3C128.221,167.06,123.8,170.87,116.83,170.87Z" transform="translate(-49.174 -59.812)" fill="#fff"/>
      <path id="Path_26" data-name="Path 26" d="M141.467,170.83a16.659,16.659,0,0,1-11.017-4.1l3.375-4a11.994,11.994,0,0,0,7.753,3.11c2.341,0,3.75-.92,3.75-2.42v-.07c0-1.43-.892-2.16-5.23-3.26-5.23-1.32-8.6-2.75-8.6-7.83v-.07c0-4.65,3.78-7.72,9.121-7.72a15.16,15.16,0,0,1,9.648,3.26l-3.04,4.27a12.259,12.259,0,0,0-6.75-2.53c-2.189,0-3.334,1-3.334,2.23v.07c0,1.68,1.115,2.23,5.6,3.37,5.27,1.35,8.24,3.22,8.24,7.69v.07C151,168,147.071,170.83,141.467,170.83Z" transform="translate(-48.805 -59.812)" fill="#fff"/>
      <path id="Path_27" data-name="Path 27" d="M154.17,170.46V144.84h19.591v5H159.846v5.2h12.243v5H159.846v5.38h14.1v5Z" transform="translate(-48.453 -59.812)" fill="#fff"/>
      <path id="Path_28" data-name="Path 28" d="M178.44,161.41a9.584,9.584,0,0,1,9.405-9.34c4.611,0,7.571,3.07,7.571,7.29a9.6,9.6,0,0,1-9.405,9.31C181.4,168.67,178.44,165.6,178.44,161.41Zm13.317-2a3.829,3.829,0,0,0-1.079-3.046,3.941,3.941,0,0,0-3.046-1.174c-3.172,0-5.534,3.23-5.534,6.06a3.829,3.829,0,0,0,1.079,3.046,3.94,3.94,0,0,0,3.046,1.174c3.122.04,5.534-3.13,5.534-6.02Z" transform="translate(-48.095 -59.812)" fill="#fff"/>
      <path id="Path_29" data-name="Path 29" d="M199.8,155.53h-2.027l.851-3.13h2.027l.3-1.3c.912-3.38,3.04-4.94,6.142-4.94a8.472,8.472,0,0,1,3.182.54l-.821,3a5.976,5.976,0,0,0-2.26-.48,2.594,2.594,0,0,0-2.655,2.23l-.243.9h4.459l-.851,3.13H203.5l-3.446,12.83h-3.7Z" transform="translate(-47.831 -59.812)" fill="#fff"/>
      <path id="Path_30" data-name="Path 30" d="M226.177,170.9a13.2,13.2,0,0,1-9.5-3.8,12.84,12.84,0,0,1-3.822-9.381v-.07a12.911,12.911,0,0,1,3.9-9.485A13.271,13.271,0,0,1,226.4,144.4a13.5,13.5,0,0,1,10.236,4L233,152.54a9.648,9.648,0,0,0-6.638-2.89c-4.378,0-7.53,3.59-7.53,8v.07c0,4.39,3.04,8.05,7.53,8.05,2.97,0,4.784-1.17,6.831-3l3.638,3.62a13.361,13.361,0,0,1-10.652,4.51Z" transform="translate(-47.578 -59.812)" fill="#fff"/>
      <path id="Path_31" data-name="Path 31" d="M251.4,170.9c-8.017,0-13.763-5.89-13.763-13.18v-.07a13.164,13.164,0,0,1,4.079-9.517,13.529,13.529,0,0,1,9.765-3.733c8.017,0,13.763,5.89,13.763,13.18v.07a13.164,13.164,0,0,1-4.079,9.517A13.529,13.529,0,0,1,251.4,170.9Zm7.885-13.25a7.733,7.733,0,0,0-2.207-5.666,7.947,7.947,0,0,0-5.658-2.384,7.815,7.815,0,0,0-5.635,2.352,7.6,7.6,0,0,0-2.159,5.648v.07a7.733,7.733,0,0,0,2.207,5.666,7.947,7.947,0,0,0,5.658,2.384,7.815,7.815,0,0,0,5.635-2.352,7.6,7.6,0,0,0,2.159-5.648Z" transform="translate(-47.205 -59.812)" fill="#fff"/>
      <path id="Path_32" data-name="Path 32" d="M278.545,170.46H268.41V144.84h10.135c8.159,0,13.8,5.53,13.8,12.74v.07C292.318,164.86,286.714,170.46,278.545,170.46Zm7.824-12.81a7.306,7.306,0,0,0-2.175-5.574,7.515,7.515,0,0,0-5.649-2.146h-4.419v15.45h4.419a7.455,7.455,0,0,0,5.642-2.1,7.247,7.247,0,0,0,2.182-5.548Z" transform="translate(-46.72 -59.812)" fill="#fff"/>
      <path id="Path_33" data-name="Path 33" d="M295.58,170.46V144.84h19.591v5H301.256v5.2H313.5v5H301.256v5.38h14.1v5Z" transform="translate(-46.353 -59.812)" fill="#fff"/>
    </g>
  </g>
</svg>
